<svg xmlns="http://www.w3.org/2000/svg" xmlns:xlink="http://www.w3.org/1999/xlink" version="1.1" x="0px" y="0px" viewBox="0 0 100 100" enable-background="new 0 0 100 100" xml:space="preserve"><g><path fill="#74512D" d="M41.733,27.615c-0.042-5.452,0.972-10.86,3.158-15.941c0.89-2.07,3.036-3.918,0.201-4.621   c-1.349-0.337-3.642,0.595-4.909,1.079c-14.248,5.45-24.625,22.014-24.625,41.611c0,20.684,11.55,37.994,27.026,42.421   c4.858,1.39,7.961,1.207,9.998-3.71c0.865-2.078,1.484-4.265,1.809-6.691c0.229-1.688,0.338-3.36,0.338-5.008   c0-6.941-1.903-13.668-5.005-19.698C44.852,47.591,41.733,37.532,41.733,27.615z M67.031,11.532   c-2.36-1.621-6.018-4.149-8.932-2.678c-2.199,1.112-3.644,4.309-4.56,6.461c-1.632,3.82-2.349,7.929-2.4,12.299   c0,7.901,2.562,16.645,6.947,25.124c3.696,7.165,6.045,15.348,6.045,24.017c0,2.059-0.136,4.143-0.406,6.247   c-0.216,1.634-1.766,4.412-1.106,5.99c1.134,2.713,4.872-1.287,6.384-2.489c9.742-7.71,16.19-21.283,16.19-36.76   C85.193,33.249,77.854,18.907,67.031,11.532z"/></g></svg>